<svg width="19" height="18" viewBox="0 0 19 18" fill="none" xmlns="http://www.w3.org/2000/svg">
<path d="M9.49998 17.967C14.4522 17.967 18.4667 15.7367 18.4667 12.9854C18.4667 10.2342 14.4522 8.00391 9.49998 8.00391C4.54776 8.00391 0.533203 10.2342 0.533203 12.9854C0.533203 15.7367 4.54776 17.967 9.49998 17.967Z" fill="#99AAB5"/>
<path d="M9.49998 16.9706C14.4522 16.9706 18.4667 14.7403 18.4667 11.9891C18.4667 9.23788 14.4522 7.00757 9.49998 7.00757C4.54776 7.00757 0.533203 9.23788 0.533203 11.9891C0.533203 14.7403 4.54776 16.9706 9.49998 16.9706Z" fill="#CCD6DD"/>
<path d="M9.49987 15.4762C2.04848 15.4762 1.03125 8.00385 1.03125 6.01123H17.9685C17.9685 7.00754 16.9931 15.4762 9.49987 15.4762Z" fill="#F5F8FA"/>
<path d="M17.6621 4.83754C18.8786 -0.205275 12.7897 0.998764 11.5826 1.94874C10.9151 1.87502 10.2197 1.83218 9.49987 1.83218C4.8227 1.83218 1.03125 3.44071 1.03125 6.03859C1.03125 8.63696 4.8227 10.7437 9.49987 10.7437C14.177 10.7437 17.9685 8.63696 17.9685 6.03909C17.9685 5.60918 17.8559 5.21016 17.6621 4.83754ZM16.4152 3.49651C15.7392 3.02924 14.87 2.65263 13.8642 2.37566C14.7982 2.08872 16.1313 2.22173 16.4152 3.49651Z" fill="#CCD6DD"/>
<path d="M9.4999 9.99662C13.6267 9.99662 16.9722 8.4354 16.9722 6.50954C16.9722 4.58368 13.6267 3.02246 9.4999 3.02246C5.37305 3.02246 2.02759 4.58368 2.02759 6.50954C2.02759 8.4354 5.37305 9.99662 9.4999 9.99662Z" fill="#8A4B38"/>
<path d="M10.4964 8.50207C10.3689 8.50207 10.2414 8.45326 10.1442 8.35612C8.98005 7.19193 8.96062 5.92263 10.082 4.24037C10.4501 3.68791 10.5303 3.12151 10.3201 2.5581C10.0904 1.94238 9.60374 1.56379 9.45778 1.52344C9.1823 1.52344 8.98055 1.30275 8.98055 1.02727C8.98055 0.752293 9.22514 0.531611 9.50013 0.531611C9.99679 0.531611 10.6932 1.10598 11.0858 1.83927C11.6008 2.8022 11.5391 3.85131 10.9109 4.79282C9.93402 6.25839 10.1482 6.95082 10.8486 7.65123C11.0434 7.84601 11.0434 8.16084 10.8486 8.35562C10.7515 8.45325 10.624 8.50207 10.4964 8.50207ZM7.50751 7.50577C7.37998 7.50577 7.25246 7.45695 7.15532 7.35981C5.99113 6.19562 5.9717 4.92633 7.09305 3.24406C7.4552 2.70057 7.5379 2.2064 7.33913 1.776C7.11795 1.29727 6.62628 1.04421 6.50024 1.02927C6.22526 1.02927 6.00757 0.806592 6.00757 0.531113C6.00757 0.256132 6.23572 0.032959 6.5112 0.032959C7.00786 0.032959 7.79893 0.518161 8.185 1.23999C8.42461 1.68783 8.70906 2.61539 7.92197 3.79601C6.94509 5.26158 7.1593 5.95402 7.8597 6.65442C8.05448 6.8492 8.05448 7.16403 7.8597 7.35881C7.76256 7.45695 7.63504 7.50577 7.50751 7.50577Z" fill="#D99E82"/>
</svg>
