<svg width="31" height="30" viewBox="0 0 31 30" fill="none" xmlns="http://www.w3.org/2000/svg">
<rect x="1.5" y="1" width="28" height="28" rx="14" fill="#6DFFC1"/>
<path d="M10.6919 9.23889C10.7709 9.31454 10.8336 9.40437 10.8764 9.50325C10.9191 9.60213 10.9411 9.70813 10.9411 9.81517C10.9411 9.92221 10.9191 10.0282 10.8764 10.1271C10.8336 10.226 10.7709 10.3158 10.6919 10.3914C9.41674 11.6139 8.70038 13.2718 8.70038 15.0004C8.70038 16.7291 9.41674 18.387 10.6919 19.6094C10.7708 19.6851 10.8334 19.7749 10.8761 19.8738C10.9187 19.9727 10.9407 20.0786 10.9406 20.1856C10.9406 20.2926 10.9186 20.3985 10.8758 20.4973C10.8331 20.5962 10.7704 20.686 10.6915 20.7616C10.6125 20.8372 10.5188 20.8972 10.4157 20.9381C10.3125 20.979 10.202 21 10.0904 21C9.97876 21 9.86824 20.9789 9.76513 20.9379C9.66203 20.8969 9.56835 20.8369 9.48945 20.7612C6.17018 17.5796 6.17018 12.4204 9.48945 9.23889C9.56838 9.16316 9.6621 9.10308 9.76526 9.06209C9.86842 9.0211 9.979 9 10.0907 9C10.2024 9 10.3129 9.0211 10.4161 9.06209C10.5193 9.10308 10.613 9.16316 10.6919 9.23889ZM21.5105 9.23889C24.8298 12.4212 24.8298 17.5796 21.5105 20.7612C21.3503 20.9096 21.1356 20.9916 20.9128 20.9898C20.69 20.9879 20.4769 20.9023 20.3193 20.7513C20.1617 20.6002 20.0724 20.3959 20.0704 20.1824C20.0685 19.9688 20.1542 19.7631 20.3089 19.6094C21.5841 18.387 22.3005 16.7291 22.3005 15.0004C22.3005 13.2718 21.5841 11.6139 20.3089 10.3914C20.1495 10.2387 20.0599 10.0315 20.0598 9.81545C20.0597 9.59939 20.1492 9.39214 20.3085 9.2393C20.4679 9.08646 20.684 9.00055 20.9094 9.00048C21.1349 9.0004 21.3511 9.08616 21.5105 9.23889ZM13.2132 11.5798C13.3725 11.7326 13.462 11.9397 13.462 12.1557C13.462 12.3717 13.3725 12.5788 13.2132 12.7316C12.9039 13.0281 12.6585 13.3801 12.491 13.7675C12.3236 14.1549 12.2374 14.5701 12.2374 14.9894C12.2374 15.4088 12.3236 15.824 12.491 16.2114C12.6585 16.5988 12.9039 16.9508 13.2132 17.2473C13.2944 17.3224 13.3591 17.4123 13.4037 17.5117C13.4482 17.6111 13.4716 17.718 13.4726 17.8261C13.4736 17.9343 13.4521 18.0415 13.4094 18.1416C13.3666 18.2417 13.3035 18.3327 13.2238 18.4091C13.144 18.4856 13.0491 18.5461 12.9446 18.5871C12.8402 18.628 12.7283 18.6486 12.6155 18.6477C12.5026 18.6467 12.3911 18.6243 12.2875 18.5816C12.1838 18.5389 12.09 18.4768 12.0116 18.3991C11.0682 17.4948 10.5382 16.2683 10.5382 14.9894C10.5382 13.7106 11.0682 12.4841 12.0116 11.5798C12.171 11.4271 12.3871 11.3414 12.6124 11.3414C12.8378 11.3414 13.0539 11.4271 13.2132 11.5798ZM19.1269 11.5798C20.0703 12.4841 20.6003 13.7106 20.6003 14.9894C20.6003 16.2683 20.0703 17.4948 19.1269 18.3991C19.048 18.4747 18.9543 18.5348 18.8512 18.5757C18.7481 18.6167 18.6376 18.6378 18.526 18.6379C18.4144 18.6379 18.3038 18.6169 18.2007 18.576C18.0975 18.5351 18.0038 18.4751 17.9249 18.3995C17.8459 18.3238 17.7833 18.234 17.7405 18.1352C17.6978 18.0364 17.6757 17.9305 17.6757 17.8235C17.6757 17.7165 17.6976 17.6105 17.7403 17.5117C17.783 17.4128 17.8455 17.323 17.9244 17.2473C18.2338 16.9508 18.4792 16.5988 18.6466 16.2114C18.8141 15.824 18.9002 15.4088 18.9002 14.9894C18.9002 14.5701 18.8141 14.1549 18.6466 13.7675C18.4792 13.3801 18.2338 13.0281 17.9244 12.7316C17.7651 12.5787 17.6756 12.3715 17.6757 12.1554C17.6758 11.9394 17.7654 11.7322 17.9249 11.5794C18.0843 11.4267 18.3005 11.3409 18.526 11.341C18.7514 11.3411 18.9676 11.427 19.1269 11.5798ZM15.5688 13.8361C15.7362 13.8361 15.902 13.8677 16.0566 13.9291C16.2113 13.9905 16.3518 14.0805 16.4702 14.1939C16.5885 14.3074 16.6824 14.4421 16.7465 14.5903C16.8105 14.7385 16.8435 14.8974 16.8435 15.0579C16.8435 15.2183 16.8105 15.3772 16.7465 15.5254C16.6824 15.6737 16.5885 15.8083 16.4702 15.9218C16.3518 16.0353 16.2113 16.1253 16.0566 16.1867C15.902 16.2481 15.7362 16.2797 15.5688 16.2797C15.2308 16.2797 14.9065 16.1509 14.6675 15.9218C14.4284 15.6927 14.2942 15.3819 14.2942 15.0579C14.2942 14.7338 14.4284 14.4231 14.6675 14.1939C14.9065 13.9648 15.2308 13.8361 15.5688 13.8361Z" fill="black"/>
<rect x="1.5" y="1" width="28" height="28" rx="14" stroke="#6DFFC1" stroke-width="2"/>
</svg>
